<?xml version="1.0" encoding="UTF-8" standalone="no"?>
<svg
   viewBox="0 0 800 400"
   width="100%"
   height="100%"
   version="1.1"
   id="svg120"
   sodipodi:docname="motherboard.new.svg"
   inkscape:version="1.4.4 (dcaf3e7d9e, 2026-05-05)"
   xmlns:inkscape="http://www.inkscape.org/namespaces/inkscape"
   xmlns:sodipodi="http://sodipodi.sourceforge.net/DTD/sodipodi-0.dtd"
   xmlns="http://www.w3.org/2000/svg"
   xmlns:svg="http://www.w3.org/2000/svg">
  <defs
     id="defs120" />
  <sodipodi:namedview
     id="namedview120"
     pagecolor="#ffffff"
     bordercolor="#000000"
     borderopacity="0.25"
     inkscape:showpageshadow="2"
     inkscape:pageopacity="0.0"
     inkscape:pagecheckerboard="0"
     inkscape:deskcolor="#d1d1d1"
     inkscape:zoom="1.8425399"
     inkscape:cx="385.33766"
     inkscape:cy="198.36749"
     inkscape:window-width="2560"
     inkscape:window-height="1376"
     inkscape:window-x="0"
     inkscape:window-y="30"
     inkscape:window-maximized="1"
     inkscape:current-layer="g40" />
  <rect
     width="800"
     height="400"
     rx="14"
     fill="#002b36"
     stroke="#586e75"
     stroke-width="2.5"
     id="rect1" />
  <g
     stroke="#2aa198"
     stroke-width="1.2"
     opacity="0.15"
     fill="none"
     pointer-events="none"
     id="g14">
    <path
       d="M 0 50 L 800 50 M 0 100 L 800 100 M 0 150 L 800 150 M 0 200 L 800 200 M 0 250 L 800 250 M 0 300 L 800 300 M 0 350 L 800 350"
       id="path1" />
    <path
       d="M 100 0 L 100 400 M 200 0 L 200 400 M 300 0 L 300 400 M 400 0 L 400 400 M 500 0 L 500 400 M 600 0 L 600 400 M 700 0 L 700 400"
       id="path2" />
    <path
       d="M 30 40 L 90 100 L 180 100 M 90 100 L 90 220"
       id="path3" />
    <path
       d="M 770 360 L 710 300 L 600 300"
       id="path4" />
    <path
       d="M 220 380 L 250 350 L 390 350"
       id="path5" />
    <path
       d="M 400 220 L 430 190 L 520 190"
       id="path6" />
    <path
       d="M 160 30 L 190 60 L 290 60"
       id="path7" />
    <path
       d="M 420 330 L 450 360 L 530 360"
       stroke-width="1.5"
       id="path8" />
    <path
       d="M 425 335 L 455 365 L 530 365"
       stroke-width="1.5"
       id="path9" />
    <path
       d="M 430 340 L 460 370 L 530 370"
       stroke-width="1.5"
       id="path10" />
    <path
       d="M 530 180 L 550 200 L 550 250"
       id="path11" />
    <path
       d="M 200 120 L 230 150 L 230 200"
       id="path12" />
    <path
       d="M 205 120 L 235 150 L 235 200"
       id="path13" />
    <path
       d="M 210 120 L 240 150 L 240 200"
       id="path14" />
  </g>
  <g
     id="vrm-capacitors">
    <g
       fill="#b58900"
       id="g35">
      <rect
         x="270"
         y="230"
         width="8"
         height="4"
         id="rect28" />
      <rect
         x="270"
         y="240"
         width="8"
         height="4"
         id="rect29" />
      <rect
         x="285"
         y="230"
         width="4"
         height="8"
         id="rect30" />
      <rect
         x="420"
         y="260"
         width="4"
         height="8"
         id="rect31" />
      <rect
         x="420"
         y="275"
         width="4"
         height="8"
         id="rect32" />
      <rect
         x="430"
         y="260"
         width="4"
         height="8"
         id="rect33" />
      <rect
         x="150"
         y="80"
         width="8"
         height="4"
         id="rect34" />
      <rect
         x="150"
         y="90"
         width="8"
         height="4"
         id="rect35" />
    </g>
  </g>
  <g
     fill="#b58900"
     stroke="#073642"
     stroke-width="2"
     opacity="0.8"
     id="g40">
    <circle
       cx="30"
       cy="30"
       r="6"
       id="circle35" />
    <circle
       cx="770"
       cy="30"
       r="6"
       id="circle36" />
    <circle
       cx="99.913391"
       cy="350.35876"
       r="6"
       id="circle37" />
    <circle
       cx="770"
       cy="370"
       r="6"
       id="circle38" />
    <circle
       cx="400"
       cy="370"
       r="6"
       id="circle39" />
    <circle
       cx="400"
       cy="18"
       r="6"
       id="circle40" />
  </g>
  <g
     fill="none"
     stroke="#2aa198"
     stroke-width="3"
     stroke-dasharray="10 5"
     opacity="0.8"
     id="g41">
    <path
       id="bus-ssd-chipset"
       d="M 140 275 L 260 275" />
    <path
       id="bus-chipset-cpu"
       d="M 390 295 L 560 295" />
    <path
       id="bus-ram-cpu"
       d="M 545 100 L 560 100" />
  </g>
  <g
     id="part-ssd"
     transform="translate(40, 30)">
    <rect
       x="0"
       y="0"
       width="90"
       height="280"
       rx="8"
       fill="none"
       stroke="#586e75"
       stroke-width="1.5"
       id="rect41" />
    <rect
       x="10"
       y="240"
       width="70"
       height="15"
       rx="2"
       fill="#073642"
       stroke="#586e75"
       stroke-width="1.5"
       id="rect42" />
    <g
       transform="translate(15, 20)"
       id="g47">
      <rect
         width="60"
         height="225"
         rx="3"
         fill="#073642"
         stroke="#2aa198"
         stroke-width="1.8"
         id="rect43" />
      <line
         x1="8"
         y1="223"
         x2="52"
         y2="223"
         stroke="#b58900"
         stroke-width="4.5"
         stroke-dasharray="3 2"
         id="line43" />
      <path
         d="M 20 0 A 10 10 0 0 1 40 0 Z"
         fill="#002b36"
         stroke="#2aa198"
         stroke-width="1.8"
         id="path43" />
      <circle
         cx="30"
         cy="0"
         r="8"
         fill="#b58900"
         id="circle43" />
      <circle
         cx="30"
         cy="0"
         r="4.5"
         fill="#93a1a1"
         stroke="#586e75"
         stroke-width="1.5"
         id="circle44" />
      <rect
         x="10"
         y="25"
         width="40"
         height="40"
         rx="3"
         fill="#586e75"
         stroke="#cb4b16"
         stroke-width="2"
         id="rect44" />
      <text
         x="30"
         y="48"
         fill="#fdf6e3"
         font-family="monospace"
         font-size="10"
         font-weight="bold"
         text-anchor="middle"
         id="text44">CTRL</text>
      <rect
         x="12"
         y="75"
         width="36"
         height="20"
         rx="2"
         fill="#002b36"
         stroke="#93a1a1"
         stroke-width="1.2"
         id="rect45" />
      <text
         x="30"
         y="89"
         fill="#93a1a1"
         font-family="monospace"
         font-size="8"
         text-anchor="middle"
         id="text45">CACHE</text>
      <rect
         x="10"
         y="105"
         width="40"
         height="50"
         rx="2"
         fill="#002b36"
         stroke="#93a1a1"
         stroke-width="1.2"
         id="rect46" />
      <text
         x="30"
         y="134"
         fill="#93a1a1"
         font-family="monospace"
         font-size="10"
         font-weight="bold"
         text-anchor="middle"
         id="text46">NAND0</text>
      <rect
         x="10"
         y="165"
         width="40"
         height="50"
         rx="2"
         fill="#002b36"
         stroke="#93a1a1"
         stroke-width="1.2"
         id="rect47" />
      <text
         x="30"
         y="194"
         fill="#93a1a1"
         font-family="monospace"
         font-size="10"
         font-weight="bold"
         text-anchor="middle"
         id="text47">NAND1</text>
    </g>
    <text
       x="45"
       y="270"
       fill="#2aa198"
       font-family="monospace"
       font-size="10"
       font-weight="bold"
       text-anchor="middle"
       id="text48">M.2 NVMe</text>
  </g>
  <g
     id="part-chipset"
     transform="translate(260, 220)">
    <rect
       class="mobo-part"
       x="0"
       y="0"
       width="130"
       height="130"
       rx="12"
       fill="none"
       stroke="#586e75"
       stroke-width="1.5"
       id="rect48" />
    <g
       transform="translate(20, 20)"
       id="g56">
      <rect
         x="0"
         y="0"
         width="90"
         height="90"
         rx="8"
         fill="#cb4b16"
         stroke="#b58900"
         stroke-width="1.8"
         id="rect49" />
      <g
         stroke="#002b36"
         stroke-width="2.5"
         id="g55">
        <line
           x1="12"
           y1="10"
           x2="12"
           y2="80"
           id="line49" />
        <line
           x1="24"
           y1="10"
           x2="24"
           y2="80"
           id="line50" />
        <line
           x1="36"
           y1="10"
           x2="36"
           y2="80"
           id="line51" />
        <line
           x1="48"
           y1="10"
           x2="48"
           y2="80"
           id="line52" />
        <line
           x1="60"
           y1="10"
           x2="60"
           y2="80"
           id="line53" />
        <line
           x1="72"
           y1="10"
           x2="72"
           y2="80"
           id="line54" />
        <line
           x1="80"
           y1="10"
           x2="80"
           y2="80"
           id="line55" />
      </g>
      <rect
         x="10"
         y="30"
         width="70"
         height="30"
         rx="3.5"
         fill="#586e75"
         stroke="#93a1a1"
         stroke-width="1.2"
         id="rect55" />
      <text
         x="45"
         y="49"
         fill="#fdf6e3"
         font-family="monospace"
         font-size="11"
         font-weight="bold"
         text-anchor="middle"
         id="text55">CHIPSET</text>
    </g>
  </g>
  <g
     id="part-ram"
     transform="translate(325, 30)">
    <rect
       class="mobo-part"
       x="0"
       y="0"
       width="220"
       height="170"
       rx="10"
       fill="none"
       stroke="#586e75"
       stroke-width="1.5"
       id="rect56" />
    <g
       transform="translate(10, 15)"
       id="g101">
      <g
         transform="translate(0, 0)"
         id="g67">
        <rect
           width="200"
           height="24"
           rx="2"
           fill="#073642"
           stroke="#586e75"
           stroke-width="1.2"
           id="rect57" />
        <line
           x1="10"
           y1="22"
           x2="190"
           y2="22"
           stroke="#b58900"
           stroke-width="3"
           stroke-dasharray="3 1.5"
           id="line57" />
        <g
           fill="#93a1a1"
           id="g65">
          <rect
             x="25"
             y="5"
             width="14"
             height="12"
             rx="1"
             id="rect58" />
          <rect
             x="45"
             y="5"
             width="14"
             height="12"
             rx="1"
             id="rect59" />
          <rect
             x="65"
             y="5"
             width="14"
             height="12"
             rx="1"
             id="rect60" />
          <rect
             x="85"
             y="5"
             width="14"
             height="12"
             rx="1"
             id="rect61" />
          <rect
             x="105"
             y="5"
             width="14"
             height="12"
             rx="1"
             id="rect62" />
          <rect
             x="125"
             y="5"
             width="14"
             height="12"
             rx="1"
             id="rect63" />
          <rect
             x="145"
             y="5"
             width="14"
             height="12"
             rx="1"
             id="rect64" />
          <rect
             x="165"
             y="5"
             width="14"
             height="12"
             rx="1"
             id="rect65" />
        </g>
        <rect
           x="-4"
           y="4"
           width="6"
           height="16"
           fill="#586e75"
           rx="1.5"
           id="rect66" />
        <rect
           x="198"
           y="4"
           width="6"
           height="16"
           fill="#586e75"
           rx="1.5"
           id="rect67" />
      </g>
      <g
         transform="translate(0, 35)"
         id="g78">
        <rect
           width="200"
           height="24"
           rx="2"
           fill="#073642"
           stroke="#586e75"
           stroke-width="1.2"
           id="rect68" />
        <line
           x1="10"
           y1="22"
           x2="190"
           y2="22"
           stroke="#b58900"
           stroke-width="3"
           stroke-dasharray="3 1.5"
           id="line68" />
        <g
           fill="#93a1a1"
           id="g76">
          <rect
             x="25"
             y="5"
             width="14"
             height="12"
             rx="1"
             id="rect69" />
          <rect
             x="45"
             y="5"
             width="14"
             height="12"
             rx="1"
             id="rect70" />
          <rect
             x="65"
             y="5"
             width="14"
             height="12"
             rx="1"
             id="rect71" />
          <rect
             x="85"
             y="5"
             width="14"
             height="12"
             rx="1"
             id="rect72" />
          <rect
             x="105"
             y="5"
             width="14"
             height="12"
             rx="1"
             id="rect73" />
          <rect
             x="125"
             y="5"
             width="14"
             height="12"
             rx="1"
             id="rect74" />
          <rect
             x="145"
             y="5"
             width="14"
             height="12"
             rx="1"
             id="rect75" />
          <rect
             x="165"
             y="5"
             width="14"
             height="12"
             rx="1"
             id="rect76" />
        </g>
        <rect
           x="-4"
           y="4"
           width="6"
           height="16"
           fill="#586e75"
           rx="1.5"
           id="rect77" />
        <rect
           x="198"
           y="4"
           width="6"
           height="16"
           fill="#586e75"
           rx="1.5"
           id="rect78" />
      </g>
      <g
         transform="translate(0, 70)"
         id="g89">
        <rect
           width="200"
           height="24"
           rx="2"
           fill="#073642"
           stroke="#586e75"
           stroke-width="1.2"
           id="rect79" />
        <line
           x1="10"
           y1="22"
           x2="190"
           y2="22"
           stroke="#b58900"
           stroke-width="3"
           stroke-dasharray="3 1.5"
           id="line79" />
        <g
           fill="#93a1a1"
           id="g87">
          <rect
             x="25"
             y="5"
             width="14"
             height="12"
             rx="1"
             id="rect80" />
          <rect
             x="45"
             y="5"
             width="14"
             height="12"
             rx="1"
             id="rect81" />
          <rect
             x="65"
             y="5"
             width="14"
             height="12"
             rx="1"
             id="rect82" />
          <rect
             x="85"
             y="5"
             width="14"
             height="12"
             rx="1"
             id="rect83" />
          <rect
             x="105"
             y="5"
             width="14"
             height="12"
             rx="1"
             id="rect84" />
          <rect
             x="125"
             y="5"
             width="14"
             height="12"
             rx="1"
             id="rect85" />
          <rect
             x="145"
             y="5"
             width="14"
             height="12"
             rx="1"
             id="rect86" />
          <rect
             x="165"
             y="5"
             width="14"
             height="12"
             rx="1"
             id="rect87" />
        </g>
        <rect
           x="-4"
           y="4"
           width="6"
           height="16"
           fill="#586e75"
           rx="1.5"
           id="rect88" />
        <rect
           x="198"
           y="4"
           width="6"
           height="16"
           fill="#586e75"
           rx="1.5"
           id="rect89" />
      </g>
      <g
         transform="translate(0, 105)"
         id="g100">
        <rect
           width="200"
           height="24"
           rx="2"
           fill="#073642"
           stroke="#586e75"
           stroke-width="1.2"
           id="rect90" />
        <line
           x1="10"
           y1="22"
           x2="190"
           y2="22"
           stroke="#b58900"
           stroke-width="3"
           stroke-dasharray="3 1.5"
           id="line90" />
        <g
           fill="#93a1a1"
           id="g98">
          <rect
             x="25"
             y="5"
             width="14"
             height="12"
             rx="1"
             id="rect91" />
          <rect
             x="45"
             y="5"
             width="14"
             height="12"
             rx="1"
             id="rect92" />
          <rect
             x="65"
             y="5"
             width="14"
             height="12"
             rx="1"
             id="rect93" />
          <rect
             x="85"
             y="5"
             width="14"
             height="12"
             rx="1"
             id="rect94" />
          <rect
             x="105"
             y="5"
             width="14"
             height="12"
             rx="1"
             id="rect95" />
          <rect
             x="125"
             y="5"
             width="14"
             height="12"
             rx="1"
             id="rect96" />
          <rect
             x="145"
             y="5"
             width="14"
             height="12"
             rx="1"
             id="rect97" />
          <rect
             x="165"
             y="5"
             width="14"
             height="12"
             rx="1"
             id="rect98" />
        </g>
        <rect
           x="-4"
           y="4"
           width="6"
           height="16"
           fill="#586e75"
           rx="1.5"
           id="rect99" />
        <rect
           x="198"
           y="4"
           width="6"
           height="16"
           fill="#586e75"
           rx="1.5"
           id="rect100" />
      </g>
      <text
         x="100"
         y="150"
         fill="#93a1a1"
         font-family="monospace"
         font-size="12"
         font-weight="bold"
         text-anchor="middle"
         id="text100">DDR4 DUAL-CHANNEL</text>
    </g>
  </g>
  <g
     id="part-cpu"
     transform="translate(560, 45)">
    <rect
       class="mobo-part"
       x="0"
       y="0"
       width="220"
       height="310"
       rx="14"
       fill="none"
       stroke="#586e75"
       stroke-width="1.5"
       id="rect101" />
    <g
       transform="translate(10, 10)"
       id="g120">
      <rect
         x="0"
         y="0"
         width="200"
         height="290"
         rx="8"
         fill="#586e75"
         stroke="#93a1a1"
         stroke-width="2.5"
         id="rect102" />
      <rect
         x="8"
         y="8"
         width="184"
         height="274"
         fill="none"
         stroke="#b58900"
         stroke-width="6"
         stroke-dasharray="3 3"
         id="rect103" />
      <rect
         x="184"
         y="10"
         width="6"
         height="270"
         fill="#93a1a1"
         rx="2"
         id="rect104" />
      <circle
         cx="183"
         cy="274.29385"
         r="6"
         fill="#002b36"
         id="circle104" />
      <rect
         id="cpu-die"
         class="cpu-die"
         x="20"
         y="20"
         width="160"
         height="250"
         rx="6"
         fill="#073642"
         stroke="#2aa198"
         stroke-width="2" />
      <rect
         id="cpu-l3"
         class="cpu-l3-region"
         x="30"
         y="220"
         width="140"
         height="40"
         rx="3"
         fill="#002b36"
         stroke="#93a1a1"
         stroke-width="1.5" />
      <text
         x="100"
         y="244"
         fill="#93a1a1"
         font-family="monospace"
         font-size="11"
         font-weight="bold"
         text-anchor="middle"
         id="text104">CACHE L3 (PARTAGÉ)</text>
      <g
         id="cpu-core-0"
         transform="translate(30, 30)">
        <rect
           class="cpu-core"
           width="65"
           height="85"
           rx="3"
           fill="none"
           stroke="#586e75"
           stroke-width="1.5"
           id="rect105" />
        <text
           x="32"
           y="15"
           fill="#93a1a1"
           font-family="monospace"
           font-size="10"
           font-weight="bold"
           text-anchor="middle"
           id="text105">CORE 0</text>
        <rect
           x="5"
           y="25"
           width="25"
           height="30"
           rx="1.5"
           fill="#268bd2"
           opacity="0.8"
           id="rect106" />
        <text
           x="17"
           y="44"
           fill="#fdf6e3"
           font-family="monospace"
           font-size="9"
           font-weight="bold"
           text-anchor="middle"
           id="text106">REG</text>
        <rect
           x="35"
           y="25"
           width="25"
           height="30"
           rx="1.5"
           fill="#b58900"
           opacity="0.8"
           id="rect107" />
        <text
           x="47"
           y="44"
           fill="#fdf6e3"
           font-family="monospace"
           font-size="9"
           font-weight="bold"
           text-anchor="middle"
           id="text107">L1</text>
        <rect
           x="5"
           y="60"
           width="55"
           height="20"
           rx="1.5"
           fill="#2aa198"
           opacity="0.9"
           id="rect108" />
        <text
           x="32"
           y="74"
           fill="#002b36"
           font-family="monospace"
           font-size="10"
           font-weight="bold"
           text-anchor="middle"
           id="text108">CACHE L2</text>
      </g>
      <g
         id="cpu-core-1"
         transform="translate(105, 30)">
        <rect
           class="cpu-core"
           width="65"
           height="85"
           rx="3"
           fill="none"
           stroke="#586e75"
           stroke-width="1.5"
           id="rect109" />
        <text
           x="32"
           y="15"
           fill="#93a1a1"
           font-family="monospace"
           font-size="10"
           font-weight="bold"
           text-anchor="middle"
           id="text109">CORE 1</text>
        <rect
           x="5"
           y="25"
           width="25"
           height="30"
           rx="1.5"
           fill="#268bd2"
           opacity="0.8"
           id="rect110" />
        <text
           x="17"
           y="44"
           fill="#fdf6e3"
           font-family="monospace"
           font-size="9"
           font-weight="bold"
           text-anchor="middle"
           id="text110">REG</text>
        <rect
           x="35"
           y="25"
           width="25"
           height="30"
           rx="1.5"
           fill="#b58900"
           opacity="0.8"
           id="rect111" />
        <text
           x="47"
           y="44"
           fill="#fdf6e3"
           font-family="monospace"
           font-size="9"
           font-weight="bold"
           text-anchor="middle"
           id="text111">L1</text>
        <rect
           x="5"
           y="60"
           width="55"
           height="20"
           rx="1.5"
           fill="#2aa198"
           opacity="0.9"
           id="rect112" />
        <text
           x="32"
           y="74"
           fill="#002b36"
           font-family="monospace"
           font-size="10"
           font-weight="bold"
           text-anchor="middle"
           id="text112">CACHE L2</text>
      </g>
      <g
         id="cpu-core-2"
         transform="translate(30, 125)">
        <rect
           class="cpu-core"
           width="65"
           height="85"
           rx="3"
           fill="none"
           stroke="#586e75"
           stroke-width="1.5"
           id="rect113" />
        <text
           x="32"
           y="15"
           fill="#93a1a1"
           font-family="monospace"
           font-size="10"
           font-weight="bold"
           text-anchor="middle"
           id="text113">CORE 2</text>
        <rect
           x="5"
           y="25"
           width="25"
           height="30"
           rx="1.5"
           fill="#268bd2"
           opacity="0.8"
           id="rect114" />
        <text
           x="17"
           y="44"
           fill="#fdf6e3"
           font-family="monospace"
           font-size="9"
           font-weight="bold"
           text-anchor="middle"
           id="text114">REG</text>
        <rect
           x="35"
           y="25"
           width="25"
           height="30"
           rx="1.5"
           fill="#b58900"
           opacity="0.8"
           id="rect115" />
        <text
           x="47"
           y="44"
           fill="#fdf6e3"
           font-family="monospace"
           font-size="9"
           font-weight="bold"
           text-anchor="middle"
           id="text115">L1</text>
        <rect
           x="5"
           y="60"
           width="55"
           height="20"
           rx="1.5"
           fill="#2aa198"
           opacity="0.9"
           id="rect116" />
        <text
           x="32"
           y="74"
           fill="#002b36"
           font-family="monospace"
           font-size="10"
           font-weight="bold"
           text-anchor="middle"
           id="text116">CACHE L2</text>
      </g>
      <g
         id="cpu-core-3"
         transform="translate(105, 125)">
        <rect
           class="cpu-core"
           width="65"
           height="85"
           rx="3"
           fill="none"
           stroke="#586e75"
           stroke-width="1.5"
           id="rect117" />
        <text
           x="32"
           y="15"
           fill="#93a1a1"
           font-family="monospace"
           font-size="10"
           font-weight="bold"
           text-anchor="middle"
           id="text117">CORE 3</text>
        <rect
           x="5"
           y="25"
           width="25"
           height="30"
           rx="1.5"
           fill="#268bd2"
           opacity="0.8"
           id="rect118" />
        <text
           x="17"
           y="44"
           fill="#fdf6e3"
           font-family="monospace"
           font-size="9"
           font-weight="bold"
           text-anchor="middle"
           id="text118">REG</text>
        <rect
           x="35"
           y="25"
           width="25"
           height="30"
           rx="1.5"
           fill="#b58900"
           opacity="0.8"
           id="rect119" />
        <text
           x="47"
           y="44"
           fill="#fdf6e3"
           font-family="monospace"
           font-size="9"
           font-weight="bold"
           text-anchor="middle"
           id="text119">L1</text>
        <rect
           x="5"
           y="60"
           width="55"
           height="20"
           rx="1.5"
           fill="#2aa198"
           opacity="0.9"
           id="rect120" />
        <text
           x="32"
           y="74"
           fill="#002b36"
           font-family="monospace"
           font-size="10"
           font-weight="bold"
           text-anchor="middle"
           id="text120">CACHE L2</text>
      </g>
    </g>
  </g>
</svg>
